 <svg
              width="23"
              height="20"
              viewBox="0 0 131 119"
              fill="none"
              xmlns="http://www.w3.org/2000/svg"
            >
              <g clip-path="url(#clip0_1_46)">
                <ellipse cx="70" cy="59.5" rx="61" ry="59.5" fill="#3A3333" />
                <path
                  d="M96.976 91.768C94.544 91.768 92.688 91.128 91.408 89.848C90.128 88.568 89.264 86.936 88.816 84.952C88.368 82.968 88.08 80.92 87.952 78.808C87.952 77.592 88.016 76.152 88.144 74.488C88.272 72.824 88.432 71.224 88.624 69.688C88.88 68.088 89.072 66.904 89.2 66.136H67.216C63.12 70.424 59.216 74.616 55.504 78.712C51.856 82.744 48.272 86.84 44.752 91H35.152C36.816 89.464 38.992 87.416 41.68 84.856C44.432 82.232 47.536 79.256 50.992 75.928C54.448 72.6 58.032 69.08 61.744 65.368C65.52 61.592 69.296 57.816 73.072 54.04C76.848 50.2 80.4 46.52 83.728 43C87.12 39.416 90.128 36.184 92.752 33.304C94.032 31.896 95.216 30.488 96.304 29.08C97.456 27.608 98.736 26.392 100.144 25.432C101.552 24.472 103.28 23.992 105.328 23.992H112.24C111.152 25.016 110.064 26.744 108.976 29.176C107.888 31.608 106.896 34.232 106 37.048C105.168 39.864 104.464 42.424 103.888 44.728C103.056 48.184 102.192 51.928 101.296 55.96C100.464 59.992 99.792 63.992 99.28 67.96C98.768 71.928 98.608 75.608 98.8 79C98.864 80.216 99.088 81.496 99.472 82.84C99.92 84.12 100.528 85.24 101.296 86.2C102.128 87.096 103.152 87.544 104.368 87.544C105.456 87.544 106.64 87.128 107.92 86.296L108.496 87.16C107.664 88.44 106.064 89.528 103.696 90.424C101.392 91.32 99.152 91.768 96.976 91.768ZM58.576 43.096C57.552 42.008 56.784 40.888 56.272 39.736C55.824 38.584 55.6 37.496 55.6 36.472C55.6 35.192 55.856 33.976 56.368 32.824C56.944 31.608 57.616 30.584 58.384 29.752C59.92 28.024 61.84 26.744 64.144 25.912C66.448 25.08 68.88 24.568 71.44 24.376C74.064 24.12 76.56 23.992 78.928 23.992H100.432C99.088 25.336 97.04 26.392 94.288 27.16C91.6 27.864 88.656 28.408 85.456 28.792C82.256 29.112 79.152 29.432 76.144 29.752C73.2 30.008 70.768 30.36 68.848 30.808C65.456 31.576 62.864 33.048 61.072 35.224C59.344 37.4 58.512 40.024 58.576 43.096ZM71.44 61.336H89.872C90.64 57.112 91.536 52.888 92.56 48.664C93.648 44.44 94.608 40.728 95.44 37.528C91.536 41.24 87.536 45.112 83.44 49.144C79.408 53.112 75.408 57.176 71.44 61.336Z"
                  fill="white"
                />
              </g>
              <ellipse cx="25" cy="20" rx="25" ry="20" fill="white" />
              <defs>
                <clipPath id="clip0_1_46">
                  <rect
                    width="122"
                    height="119"
                    fill="white"
                    transform="translate(9)"
                  />
                </clipPath>
              </defs>
            </svg>